# Created by Kenney (www.kenney.nl)

mtllib Section1_2.mtl

g mergedBlocks

v -0.5625 3.205931E-31 -0.5
v -0.5625 2 -0.5
v -0.5 1.263345E-15 -0.4375
v -0.5 2 -0.4375
v 0.5625 7.219114E-16 -0.5
v 0.5 1.263345E-15 -0.4375
v 0.5625 2 -0.5
v 0.5 2 -0.4375
v 0.5 1.263345E-15 -0.5625
v -0.5 1.263345E-15 -0.5625
v 0.5 2 -0.5625
v -0.5 2 -0.5625
v -3.5625 3.205931E-31 -0.5
v -3.5625 2 -0.5
v -3.5 1.263345E-15 -0.4375
v -3.5 2 -0.4375
v -2.4375 7.219114E-16 -0.5
v -2.5 1.263345E-15 -0.4375
v -2.4375 2 -0.5
v -2.5 2 -0.4375
v -2.5 1.263345E-15 -0.5625
v -3.5 1.263345E-15 -0.5625
v -2.5 2 -0.5625
v -3.5 2 -0.5625
v -4.5625 3.205931E-31 -0.5
v -4.5625 2 -0.5
v -4.5 1.263345E-15 -0.4375
v -4.5 2 -0.4375
v -3.4375 7.219114E-16 -0.5
v -3.4375 2 -0.5
v -4.5 1.263345E-15 -0.5625
v -4.5 2 -0.5625
v -5.5625 3.205931E-31 -0.5
v -5.5625 2 -0.5
v -5.5 1.263345E-15 -0.4375
v -5.5 2 -0.4375
v -4.4375 7.219114E-16 -0.5
v -4.4375 2 -0.5
v -5.5 1.263345E-15 -0.5625
v -5.5 2 -0.5625
v -5.5 3.205931E-31 -0.5625
v -5.5625 1.263345E-15 -0.5
v -5.5 7.219114E-16 0.5625001
v -5.5625 1.263345E-15 0.5000001
v -5.5 2 0.5625001
v -5.5625 2 0.5000001
v -5.4375 1.263345E-15 0.5000001
v -5.4375 1.263345E-15 -0.5
v -5.4375 2 0.5000001
v -5.4375 2 -0.5
v -5.5 3.205931E-31 0.4375
v -5.5 2 0.4375
v -5.5625 1.263345E-15 0.5
v -5.5625 2 0.5
v -5.5 7.219114E-16 1.5625
v -5.5625 1.263345E-15 1.5
v -5.5 2 1.5625
v -5.5625 2 1.5
v -5.4375 1.263345E-15 1.5
v -5.4375 1.263345E-15 0.5
v -5.4375 2 1.5
v -5.4375 2 0.5
v 0.5000001 3.205931E-31 -0.5625
v 0.5000001 2 -0.5625
v 0.4375001 1.263345E-15 -0.5
v 0.4375001 2 -0.5
v 0.5 7.219114E-16 0.5625001
v 0.4375 1.263345E-15 0.5000001
v 0.5 2 0.5625001
v 0.4375 2 0.5000001
v 0.5625 1.263345E-15 0.5000001
v 0.5625001 1.263345E-15 -0.5
v 0.5625 2 0.5000001
v 0.5625001 2 -0.5
v 0.5000015 3.205931E-31 0.4374984
v 0.5000015 2 0.4374984
v 0.4375014 1.263345E-15 0.4999986
v 0.4375014 2 0.4999986
v 0.5000014 7.219114E-16 1.562502
v 0.4375013 1.263345E-15 1.500002
v 0.5000014 2 1.562502
v 0.4375013 2 1.500002
v 0.5625016 1.263345E-15 1.500002
v 0.5625017 1.263345E-15 0.4999986
v 0.5625016 2 1.500002
v 0.5625017 2 0.4999986
v -1.5625 3.205931E-31 -0.5
v -1.5625 2 -0.5
v -1.5 1.263345E-15 -0.4375
v -1.5 2 -0.4375
v -0.4375 7.219114E-16 -0.5
v -0.4375 2 -0.5
v -1.5 1.263345E-15 -0.5625
v -1.5 2 -0.5625
v -2.5625 3.205931E-31 -0.5
v -2.5625 2 -0.5
v -1.4375 7.219114E-16 -0.5
v -1.4375 2 -0.5
v -2.5625 3.205931E-31 1.5
v -2.5625 2 1.5
v -2.5 1.263345E-15 1.5625
v -2.5 2 1.5625
v -1.4375 7.219114E-16 1.5
v -1.5 1.263345E-15 1.5625
v -1.4375 2 1.5
v -1.5 2 1.5625
v -1.5 1.263345E-15 1.4375
v -2.5 1.263345E-15 1.4375
v -1.5 2 1.4375
v -2.5 2 1.4375
v -3.5625 3.205931E-31 1.5
v -3.5625 2 1.5
v -3.5 1.263345E-15 1.5625
v -3.5 2 1.5625
v -2.4375 7.219114E-16 1.5
v -2.4375 2 1.5
v -3.5 1.263345E-15 1.4375
v -3.5 2 1.4375
v -1.625 3.205931E-31 1.5
v -1.625 2 1.5
v 0.625 7.219114E-16 1.5
v 0.5 1.263345E-15 1.5625
v 0.625 2 1.5
v 0.5 2 1.5625
v -0.9 1.443823E-15 1.4075
v -1.1 1.443823E-15 1.4075
v -0.9 1.443823E-15 1.5925
v -1.1 1.443823E-15 1.4375
v -1.1 1.443823E-15 1.5925
v -1.1 1.443823E-15 1.5625
v 0.5 2 1.4375
v 0.5 1.263345E-15 1.4375
v -1.1 1.8 1.4375
v 0.1 1.8 1.4375
v 0.1 1.443823E-15 1.4375
v 0.1 1.443823E-15 1.5625
v 0.1 1.8 1.5625
v -1.1 1.8 1.5625
v -0.09999999 1.443823E-15 1.4075
v 0.1 1.443823E-15 1.4075
v 0.1 1.443823E-15 1.5925
v -0.09999999 1.443823E-15 1.5925
v -5.625 3.205931E-31 1.5
v -5.625 2 1.5
v -5.5 1.263345E-15 1.5625
v -5.5 2 1.5625
v -3.375 7.219114E-16 1.5
v -3.375 2 1.5
v -4.9 1.443823E-15 1.4075
v -5.1 1.443823E-15 1.4075
v -4.9 1.443823E-15 1.5925
v -5.1 1.443823E-15 1.4375
v -5.1 1.443823E-15 1.5925
v -5.1 1.443823E-15 1.5625
v -5.5 1.263345E-15 1.4375
v -5.5 2 1.4375
v -5.1 1.8 1.4375
v -3.9 1.8 1.4375
v -3.9 1.443823E-15 1.4375
v -3.9 1.443823E-15 1.5625
v -3.9 1.8 1.5625
v -5.1 1.8 1.5625
v -4.1 1.443823E-15 1.4075
v -3.9 1.443823E-15 1.4075
v -3.9 1.443823E-15 1.5925
v -4.1 1.443823E-15 1.5925
v -0.9 1.6 1.4075
v -0.9 1.6 1.5925
v -0.09999999 1.6 1.4075
v -0.09999999 1.6 1.5925
v 0.1 1.8 1.5925
v -1.1 1.8 1.5925
v -1.1 1.8 1.4075
v 0.1 1.8 1.4075
v -4.9 1.6 1.4075
v -4.9 1.6 1.5925
v -4.1 1.6 1.4075
v -4.1 1.6 1.5925
v -3.9 1.8 1.5925
v -5.1 1.8 1.5925
v -5.1 1.8 1.4075
v -3.9 1.8 1.4075

vn -0.7071068 0 0.7071068
vn 0.7071068 0 0.7071068
vn 0 -1 0
vn 0 1 0
vn 0.7071068 0 -0.7071068
vn 0 0 -1
vn -0.7071068 0 -0.7071068
vn 0 0 1
vn -0.7071067 0 -0.7071068
vn -0.7071068 0 0.7071067
vn 0.7071067 0 0.7071068
vn 1 0 1.192093E-07
vn 0.7071068 0 -0.7071067
vn -1 0 -1.192093E-07
vn -0.4472136 0 0.8944272
vn 0.4472136 0 0.8944272
vn 0.4472136 0 -0.8944272
vn -0.4472136 0 -0.8944272
vn 1 0 0
vn -1 0 0

vt -0.5625 3.205931E-31
vt -0.5625 2
vt -0.5 1.263345E-15
vt -0.5 2
vt 0.5625 7.219114E-16
vt 0.5 1.263345E-15
vt 0.5625 2
vt 0.5 2
vt -0.5625 0.5
vt -0.5 0.5625
vt -0.5 0.4375
vt 0.5 0.5625
vt 0.5 0.4375
vt 0.5625 0.5
vt -0.5625 -0.5
vt -0.5 -0.4375
vt -0.5 -0.5625
vt 0.5 -0.5625
vt 0.5 -0.4375
vt 0.5625 -0.5
vt -0.5625 7.219114E-16
vt 0.5625 3.205931E-31
vt -3.5625 3.205931E-31
vt -3.5625 2
vt -3.5 1.263345E-15
vt -3.5 2
vt -2.4375 7.219114E-16
vt -2.5 1.263345E-15
vt -2.4375 2
vt -2.5 2
vt 2.4375 0.5
vt 2.5 0.5625
vt 2.5 0.4375
vt 3.5 0.5625
vt 3.5 0.4375
vt 3.5625 0.5
vt 2.4375 -0.5
vt 2.5 -0.4375
vt 2.5 -0.5625
vt 3.5 -0.5625
vt 3.5 -0.4375
vt 3.5625 -0.5
vt 2.5 2
vt 2.5 1.263345E-15
vt 2.4375 2
vt 2.4375 7.219114E-16
vt 3.5 1.263345E-15
vt 3.5 2
vt 3.5625 3.205931E-31
vt 3.5625 2
vt -4.5625 3.205931E-31
vt -4.5625 2
vt -4.5 1.263345E-15
vt -4.5 2
vt -3.4375 7.219114E-16
vt -3.4375 2
vt 3.4375 0.5
vt 4.5 0.5625
vt 4.5 0.4375
vt 4.5625 0.5
vt 3.4375 -0.5
vt 4.5 -0.5625
vt 4.5 -0.4375
vt 4.5625 -0.5
vt 3.4375 2
vt 3.4375 7.219114E-16
vt 4.5 1.263345E-15
vt 4.5 2
vt 4.5625 3.205931E-31
vt 4.5625 2
vt -5.5625 3.205931E-31
vt -5.5625 2
vt -5.5 1.263345E-15
vt -5.5 2
vt -4.4375 7.219114E-16
vt -4.4375 2
vt 4.4375 0.5
vt 5.5 0.5625
vt 5.5 0.4375
vt 5.5625 0.5
vt 4.4375 -0.5
vt 5.5 -0.5625
vt 5.5 -0.4375
vt 5.5625 -0.5
vt 4.4375 2
vt 4.4375 7.219114E-16
vt 5.5 1.263345E-15
vt 5.5 2
vt 5.5625 3.205931E-31
vt 5.5625 2
vt 5.5 3.205931E-31
vt 5.5625 1.263345E-15
vt -5.5 7.219114E-16
vt -5.5625 1.263345E-15
vt 5.5 -0.5625001
vt 5.4375 -0.5000001
vt 5.5625 -0.5000001
vt 5.4375 0.5
vt 5.5 0.5625001
vt 5.5625 0.5000001
vt 5.4375 0.5000001
vt 5.4375 -0.5
vt -5.4375 2
vt -5.4375 1.263345E-15
vt -0.5000001 1.263345E-15
vt -0.5000001 2
vt 5.4375 1.263345E-15
vt 5.4375 2
vt 0.5000001 1.263345E-15
vt 0.5000001 2
vt 5.5 -1.5625
vt 5.4375 -1.5
vt 5.5625 -1.5
vt 5.5 1.5625
vt 5.5625 1.5
vt 5.4375 1.5
vt -1.5 1.263345E-15
vt -1.5 2
vt 1.5 1.263345E-15
vt 1.5 2
vt -0.5000001 3.205931E-31
vt -0.4375001 1.263345E-15
vt -0.4375001 2
vt 0.5 7.219114E-16
vt 0.4375 1.263345E-15
vt 0.4375 2
vt -0.5 -0.5625001
vt -0.5625 -0.5000001
vt -0.4375 -0.5000001
vt -0.5625001 0.5
vt -0.4375001 0.5
vt -0.5000001 0.5625
vt -0.5 0.5625001
vt -0.4375 0.5000001
vt -0.5625 0.5000001
vt -0.5625001 -0.5
vt -0.4375001 -0.5
vt -0.5000001 -0.5625
vt 0.5625 1.263345E-15
vt -0.5625001 1.263345E-15
vt -0.5625001 2
vt -0.5000015 3.205931E-31
vt -0.5000015 2
vt -0.4375014 1.263345E-15
vt -0.4375014 2
vt 1.562502 7.219114E-16
vt 1.500002 1.263345E-15
vt 1.562502 2
vt 1.500002 2
vt -0.5000014 -1.562502
vt -0.5625016 -1.500002
vt -0.4375013 -1.500002
vt -0.5625017 -0.4999986
vt -0.4375014 -0.4999986
vt -0.5000015 -0.4374984
vt -0.5000014 1.562502
vt -0.4375013 1.500002
vt -0.5625016 1.500002
vt -0.5625017 0.4999986
vt -0.4375014 0.4999986
vt -0.5000015 0.4374984
vt -1.500002 2
vt -1.500002 1.263345E-15
vt -1.562502 2
vt -1.562502 7.219114E-16
vt -0.4999986 1.263345E-15
vt -0.4999986 2
vt -0.5625017 1.263345E-15
vt -0.5625017 2
vt 0.4999986 1.263345E-15
vt 0.4999986 2
vt -1.5625 3.205931E-31
vt -1.5625 2
vt -1.5 1.263345E-15
vt -1.5 2
vt -0.4375 7.219114E-16
vt -0.4375 2
vt 0.4375 0.5
vt 1.5 0.5625
vt 1.5 0.4375
vt 1.5625 0.5
vt 0.4375 -0.5
vt 1.5 -0.5625
vt 1.5 -0.4375
vt 1.5625 -0.5
vt 0.4375 7.219114E-16
vt 1.5 1.263345E-15
vt 1.5 2
vt 1.5625 3.205931E-31
vt 1.5625 2
vt 2.4375 -1.5
vt 2.5 -1.4375
vt 2.5 -1.5625
vt 3.5 -1.4375
vt 3.5 -1.5625
vt 3.5625 -1.5
vt 2.4375 1.5
vt 2.5 1.5625
vt 2.5 1.4375
vt 3.5 1.4375
vt 3.5 1.5625
vt 3.5625 1.5
vt -5.625 3.205931E-31
vt -5.625 2
vt -3.375 7.219114E-16
vt -3.375 2
vt 4.9 -1.4075
vt 5.1 -1.4075
vt 4.9 -1.5925
vt 5.1 -1.4375
vt 5.1 -1.5925
vt -5.1 1.443823E-15
vt 5.5 -1.4375
vt 5.1 -1.5625
vt 5.5 -1.5625
vt 5.625 -1.5
vt 3.375 1.5
vt 5.5 1.4375
vt 5.5 1.5625
vt 5.625 1.5
vt 3.375 2
vt 3.375 7.219114E-16
vt 5.1 1.443823E-15
vt 5.1 1.8
vt 3.9 1.8
vt 3.9 1.443823E-15
vt 5.625 3.205931E-31
vt 5.625 2
vt -3.9 1.443823E-15
vt -3.9 1.8
vt -5.1 1.8
vt 3.375 -1.5
vt 3.9 -1.4375
vt 3.9 -1.5625
vt 4.1 -1.4075
vt 3.9 -1.4075
vt 3.9 -1.5925
vt 4.1 -1.5925
vt -1.4075 1.6
vt -1.4075 1.443823E-15
vt -1.5925 1.6
vt -1.5925 1.443823E-15
vt 1.4075 1.443823E-15
vt 1.4075 1.6
vt 1.5925 1.443823E-15
vt 1.5925 1.6
vt -4.1 1.443823E-15
vt -4.1 1.6
vt -4.9 1.6
vt -4.9 1.443823E-15
vt 3.9 1.5625
vt 3.9 1.5925
vt 5.1 1.5625
vt 5.1 1.5925
vt 1.5625 1.443823E-15
vt 1.5625 1.8
vt 1.5925 1.8
vt -1.5625 1.8
vt -1.5625 1.443823E-15
vt -1.5925 1.8
vt 4.9 1.443823E-15
vt 4.9 1.6
vt 4.1 1.6
vt 4.1 1.443823E-15
vt 3.9 1.4075
vt 3.9 1.4375
vt 5.1 1.4075
vt 5.1 1.4375
vt -1.4075 1.8
vt -1.4375 1.8
vt -1.4375 1.443823E-15
vt 1.4075 1.8
vt 1.4375 1.443823E-15
vt 1.4375 1.8

usemtl stone(Clone)

f 3/3/1 2/2/1 1/1/1
f 2/2/1 3/3/1 4/4/1
f 7/7/2 6/6/2 5/5/2
f 6/6/2 7/7/2 8/8/2
f 6/11/3 9/10/3 5/9/3
f 9/10/3 6/11/3 10/12/3
f 10/12/3 6/11/3 3/13/3
f 10/12/3 3/13/3 1/14/3
f 11/17/4 8/16/4 7/15/4
f 8/16/4 11/17/4 12/18/4
f 8/16/4 12/18/4 4/19/4
f 4/19/4 12/18/4 2/20/4
f 7/2/5 9/3/5 11/4/5
f 9/3/5 7/2/5 5/21/5
f 12/8/6 9/3/6 10/6/6
f 9/3/6 12/8/6 11/4/6
f 2/7/7 10/6/7 1/22/7
f 10/6/7 2/7/7 12/8/7
f 8/8/8 3/3/8 6/6/8
f 3/3/8 8/8/8 4/4/8
f 15/25/1 14/24/1 13/23/1
f 14/24/1 15/25/1 16/26/1
f 19/29/2 18/28/2 17/27/2
f 18/28/2 19/29/2 20/30/2
f 18/33/3 21/32/3 17/31/3
f 21/32/3 18/33/3 22/34/3
f 22/34/3 18/33/3 15/35/3
f 22/34/3 15/35/3 13/36/3
f 23/39/4 20/38/4 19/37/4
f 20/38/4 23/39/4 24/40/4
f 20/38/4 24/40/4 16/41/4
f 16/41/4 24/40/4 14/42/4
f 19/45/5 21/44/5 23/43/5
f 21/44/5 19/45/5 17/46/5
f 24/48/6 21/44/6 22/47/6
f 21/44/6 24/48/6 23/43/6
f 14/50/7 22/47/7 13/49/7
f 22/47/7 14/50/7 24/48/7
f 20/30/8 15/25/8 18/28/8
f 15/25/8 20/30/8 16/26/8
f 27/53/1 26/52/1 25/51/1
f 26/52/1 27/53/1 28/54/1
f 30/56/2 15/25/2 29/55/2
f 15/25/2 30/56/2 16/26/2
f 15/35/3 22/34/3 29/57/3
f 22/34/3 15/35/3 31/58/3
f 31/58/3 15/35/3 27/59/3
f 31/58/3 27/59/3 25/60/3
f 24/40/4 16/41/4 30/61/4
f 16/41/4 24/40/4 32/62/4
f 16/41/4 32/62/4 28/63/4
f 28/63/4 32/62/4 26/64/4
f 30/65/5 22/47/5 24/48/5
f 22/47/5 30/65/5 29/66/5
f 32/68/6 22/47/6 31/67/6
f 22/47/6 32/68/6 24/48/6
f 26/70/7 31/67/7 25/69/7
f 31/67/7 26/70/7 32/68/7
f 16/26/8 27/53/8 15/25/8
f 27/53/8 16/26/8 28/54/8
f 35/73/1 34/72/1 33/71/1
f 34/72/1 35/73/1 36/74/1
f 38/76/2 27/53/2 37/75/2
f 27/53/2 38/76/2 28/54/2
f 27/59/3 31/58/3 37/77/3
f 31/58/3 27/59/3 39/78/3
f 39/78/3 27/59/3 35/79/3
f 39/78/3 35/79/3 33/80/3
f 32/62/4 28/63/4 38/81/4
f 28/63/4 32/62/4 40/82/4
f 28/63/4 40/82/4 36/83/4
f 36/83/4 40/82/4 34/84/4
f 38/85/5 31/67/5 32/68/5
f 31/67/5 38/85/5 37/86/5
f 40/88/6 31/67/6 39/87/6
f 31/67/6 40/88/6 32/68/6
f 34/90/7 39/87/7 33/89/7
f 39/87/7 34/90/7 40/88/7
f 28/54/8 35/73/8 27/53/8
f 35/73/8 28/54/8 36/74/8
f 42/92/9 40/88/9 41/91/9
f 40/88/9 42/92/9 34/90/9
f 45/74/10 44/94/10 43/93/10
f 44/94/10 45/74/10 46/72/10
f 44/97/3 47/96/3 43/95/3
f 47/96/3 44/97/3 48/98/3
f 48/98/3 44/97/3 42/80/3
f 48/98/3 42/80/3 41/78/3
f 49/101/4 46/100/4 45/99/4
f 46/100/4 49/101/4 50/102/4
f 46/100/4 50/102/4 34/84/4
f 34/84/4 50/102/4 40/82/4
f 45/74/11 47/104/11 49/103/11
f 47/104/11 45/74/11 43/93/11
f 50/8/12 47/105/12 48/6/12
f 47/105/12 50/8/12 49/106/12
f 40/88/13 48/107/13 41/91/13
f 48/107/13 40/88/13 50/108/13
f 46/110/14 42/3/14 44/109/14
f 42/3/14 46/110/14 34/4/14
f 53/92/9 52/88/9 51/91/9
f 52/88/9 53/92/9 54/90/9
f 57/74/10 56/94/10 55/93/10
f 56/94/10 57/74/10 58/72/10
f 56/113/3 59/112/3 55/111/3
f 59/112/3 56/113/3 60/102/3
f 60/102/3 56/113/3 53/84/3
f 60/102/3 53/84/3 51/83/3
f 61/116/4 58/115/4 57/114/4
f 58/115/4 61/116/4 62/98/4
f 58/115/4 62/98/4 54/80/4
f 54/80/4 62/98/4 52/79/4
f 57/74/11 59/104/11 61/103/11
f 59/104/11 57/74/11 55/93/11
f 62/4/12 59/117/12 60/3/12
f 59/117/12 62/4/12 61/118/12
f 52/88/13 60/107/13 51/91/13
f 60/107/13 52/88/13 62/108/13
f 58/120/14 53/6/14 56/119/14
f 53/6/14 58/120/14 54/8/14
f 65/122/9 64/106/9 63/121/9
f 64/106/9 65/122/9 66/123/9
f 69/8/10 68/125/10 67/124/10
f 68/125/10 69/8/10 70/126/10
f 68/129/3 71/128/3 67/127/3
f 71/128/3 68/129/3 72/130/3
f 72/130/3 68/129/3 65/131/3
f 72/130/3 65/131/3 63/132/3
f 73/135/4 70/134/4 69/133/4
f 70/134/4 73/135/4 74/136/4
f 70/134/4 74/136/4 66/137/4
f 66/137/4 74/136/4 64/138/4
f 69/8/11 71/139/11 73/7/11
f 71/139/11 69/8/11 67/124/11
f 74/8/12 71/105/12 72/6/12
f 71/105/12 74/8/12 73/106/12
f 64/106/13 72/140/13 63/121/13
f 72/140/13 64/106/13 74/141/13
f 70/110/14 65/3/14 68/109/14
f 65/3/14 70/110/14 66/4/14
f 77/144/9 76/143/9 75/142/9
f 76/143/9 77/144/9 78/145/9
f 81/148/10 80/147/10 79/146/10
f 80/147/10 81/148/10 82/149/10
f 80/152/3 83/151/3 79/150/3
f 83/151/3 80/152/3 84/153/3
f 84/153/3 80/152/3 77/154/3
f 84/153/3 77/154/3 75/155/3
f 85/158/4 82/157/4 81/156/4
f 82/157/4 85/158/4 86/159/4
f 82/157/4 86/159/4 78/160/4
f 78/160/4 86/159/4 76/161/4
f 81/164/11 83/163/11 85/162/11
f 83/163/11 81/164/11 79/165/11
f 86/167/12 83/163/12 84/166/12
f 83/163/12 86/167/12 85/162/12
f 76/143/13 84/168/13 75/142/13
f 84/168/13 76/143/13 86/169/13
f 82/149/14 77/170/14 80/147/14
f 77/170/14 82/149/14 78/171/14
f 89/174/1 88/173/1 87/172/1
f 88/173/1 89/174/1 90/175/1
f 92/177/2 3/3/2 91/176/2
f 3/3/2 92/177/2 4/4/2
f 3/13/3 10/12/3 91/178/3
f 10/12/3 3/13/3 93/179/3
f 93/179/3 3/13/3 89/180/3
f 93/179/3 89/180/3 87/181/3
f 12/18/4 4/19/4 92/182/4
f 4/19/4 12/18/4 94/183/4
f 4/19/4 94/183/4 90/184/4
f 90/184/4 94/183/4 88/185/4
f 92/126/5 10/6/5 12/8/5
f 10/6/5 92/126/5 91/186/5
f 94/188/6 10/6/6 93/187/6
f 10/6/6 94/188/6 12/8/6
f 88/190/7 93/187/7 87/189/7
f 93/187/7 88/190/7 94/188/7
f 4/4/8 89/174/8 3/3/8
f 89/174/8 4/4/8 90/175/8
f 18/25/1 96/24/1 95/23/1
f 96/24/1 18/25/1 20/26/1
f 98/29/2 89/28/2 97/27/2
f 89/28/2 98/29/2 90/30/2
f 89/193/3 93/192/3 97/191/3
f 93/192/3 89/193/3 21/194/3
f 21/194/3 89/193/3 18/195/3
f 21/194/3 18/195/3 95/196/3
f 94/199/4 90/198/4 98/197/4
f 90/198/4 94/199/4 23/200/4
f 90/198/4 23/200/4 20/201/4
f 20/201/4 23/200/4 96/202/4
f 98/45/5 93/44/5 94/43/5
f 93/44/5 98/45/5 97/46/5
f 23/48/6 93/44/6 21/47/6
f 93/44/6 23/48/6 94/43/6
f 96/50/7 21/47/7 95/49/7
f 21/47/7 96/50/7 23/48/7
f 90/30/8 18/25/8 89/28/8
f 18/25/8 90/30/8 20/26/8
f 101/25/1 100/24/1 99/23/1
f 100/24/1 101/25/1 102/26/1
f 105/29/2 104/28/2 103/27/2
f 104/28/2 105/29/2 106/30/2
f 104/193/3 107/192/3 103/191/3
f 107/192/3 104/193/3 108/194/3
f 108/194/3 104/193/3 101/195/3
f 108/194/3 101/195/3 99/196/3
f 109/199/4 106/198/4 105/197/4
f 106/198/4 109/199/4 110/200/4
f 106/198/4 110/200/4 102/201/4
f 102/201/4 110/200/4 100/202/4
f 105/45/5 107/44/5 109/43/5
f 107/44/5 105/45/5 103/46/5
f 110/48/6 107/44/6 108/47/6
f 107/44/6 110/48/6 109/43/6
f 100/50/7 108/47/7 99/49/7
f 108/47/7 100/50/7 110/48/7
f 106/30/8 101/25/8 104/28/8
f 101/25/8 106/30/8 102/26/8
f 113/25/1 112/24/1 111/23/1
f 112/24/1 113/25/1 114/26/1
f 116/29/2 101/28/2 115/27/2
f 101/28/2 116/29/2 102/30/2
f 101/193/3 108/192/3 115/191/3
f 108/192/3 101/193/3 117/194/3
f 117/194/3 101/193/3 113/195/3
f 117/194/3 113/195/3 111/196/3
f 110/199/4 102/198/4 116/197/4
f 102/198/4 110/199/4 118/200/4
f 102/198/4 118/200/4 114/201/4
f 114/201/4 118/200/4 112/202/4
f 116/45/5 108/44/5 110/43/5
f 108/44/5 116/45/5 115/46/5
f 118/48/6 108/44/6 117/47/6
f 108/44/6 118/48/6 110/43/6
f 112/50/7 117/47/7 111/49/7
f 117/47/7 112/50/7 118/48/7
f 102/30/8 113/25/8 101/28/8
f 113/25/8 102/30/8 114/26/8
f 104/73/15 120/204/15 119/203/15
f 120/204/15 104/73/15 106/74/15
f 123/206/16 122/25/16 121/205/16
f 122/25/16 123/206/16 124/26/16
f 127/209/3 126/208/3 125/207/3
f 126/208/3 127/209/3 128/210/3
f 128/210/3 127/209/3 129/211/3
f 128/212/3 129/212/3 130/212/3
f 130/214/3 107/213/3 128/210/3
f 107/213/3 130/214/3 104/215/3
f 107/213/3 104/215/3 119/216/3
f 131/200/4 124/201/4 123/217/4
f 124/201/4 131/200/4 109/218/4
f 124/201/4 109/218/4 106/219/4
f 106/219/4 109/218/4 120/220/4
f 123/221/17 132/47/17 131/48/17
f 132/47/17 123/221/17 121/222/17
f 109/88/6 128/223/6 107/87/6
f 128/223/6 109/88/6 133/224/6
f 133/224/6 109/88/6 134/225/6
f 131/48/6 134/225/6 109/88/6
f 131/48/6 135/226/6 134/225/6
f 135/226/6 131/48/6 132/47/6
f 120/228/18 107/87/18 119/227/18
f 107/87/18 120/228/18 109/88/18
f 124/26/8 136/229/8 122/25/8
f 136/229/8 124/26/8 137/230/8
f 137/230/8 124/26/8 138/231/8
f 106/74/8 138/231/8 124/26/8
f 106/74/8 130/212/8 138/231/8
f 130/212/8 106/74/8 104/73/8
f 122/195/3 132/194/3 121/232/3
f 132/194/3 122/195/3 135/233/3
f 135/233/3 122/195/3 136/234/3
f 139/235/3 135/233/3 136/234/3
f 135/233/3 139/235/3 140/236/3
f 139/235/3 136/234/3 141/237/3
f 139/235/3 141/237/3 142/238/3
f 145/73/15 144/204/15 143/203/15
f 144/204/15 145/73/15 146/74/15
f 148/206/16 113/25/16 147/205/16
f 113/25/16 148/206/16 114/26/16
f 151/209/3 150/208/3 149/207/3
f 150/208/3 151/209/3 152/210/3
f 152/210/3 151/209/3 153/211/3
f 152/212/3 153/212/3 154/212/3
f 154/214/3 155/213/3 152/210/3
f 155/213/3 154/214/3 145/215/3
f 155/213/3 145/215/3 143/216/3
f 118/200/4 114/201/4 148/217/4
f 114/201/4 118/200/4 156/218/4
f 114/201/4 156/218/4 146/219/4
f 146/219/4 156/218/4 144/220/4
f 148/221/17 117/47/17 118/48/17
f 117/47/17 148/221/17 147/222/17
f 156/88/6 152/223/6 155/87/6
f 152/223/6 156/88/6 157/224/6
f 157/224/6 156/88/6 158/225/6
f 118/48/6 158/225/6 156/88/6
f 118/48/6 159/226/6 158/225/6
f 159/226/6 118/48/6 117/47/6
f 144/228/18 155/87/18 143/227/18
f 155/87/18 144/228/18 156/88/18
f 114/26/8 160/229/8 113/25/8
f 160/229/8 114/26/8 161/230/8
f 161/230/8 114/26/8 162/231/8
f 146/74/8 162/231/8 114/26/8
f 146/74/8 154/212/8 162/231/8
f 154/212/8 146/74/8 145/73/8
f 113/195/3 117/194/3 147/232/3
f 117/194/3 113/195/3 159/233/3
f 159/233/3 113/195/3 160/234/3
f 163/235/3 159/233/3 160/234/3
f 159/233/3 163/235/3 164/236/3
f 163/235/3 160/234/3 165/237/3
f 163/235/3 165/237/3 166/238/3

usemtl stoneDark(Clone)

f 168/241/19 125/240/19 167/239/19
f 125/240/19 168/241/19 127/242/19
f 142/245/20 169/244/20 139/243/20
f 169/244/20 142/245/20 170/246/20
f 170/238/3 167/207/3 169/235/3
f 167/207/3 170/238/3 168/209/3
f 171/230/8 142/247/8 141/229/8
f 142/247/8 171/230/8 170/248/8
f 170/248/8 171/230/8 168/249/8
f 172/231/8 168/249/8 171/230/8
f 129/212/8 168/249/8 172/231/8
f 168/249/8 129/212/8 127/250/8
f 138/253/4 171/252/4 137/251/4
f 171/252/4 138/253/4 172/254/4
f 129/245/20 138/256/20 130/255/20
f 138/256/20 129/245/20 172/257/20
f 171/260/19 136/259/19 137/258/19
f 136/259/19 171/260/19 141/242/19
f 173/224/6 125/261/6 126/223/6
f 125/261/6 173/224/6 167/262/6
f 167/262/6 173/224/6 169/263/6
f 174/225/6 169/263/6 173/224/6
f 140/226/6 169/263/6 174/225/6
f 169/263/6 140/226/6 139/264/6
f 173/267/4 134/266/4 174/265/4
f 134/266/4 173/267/4 133/268/4
f 134/270/19 140/240/19 174/269/19
f 140/240/19 134/270/19 135/271/19
f 128/273/20 173/272/20 126/243/20
f 173/272/20 128/273/20 133/274/20
f 176/241/19 149/240/19 175/239/19
f 149/240/19 176/241/19 151/242/19
f 166/245/20 177/244/20 163/243/20
f 177/244/20 166/245/20 178/246/20
f 178/238/3 175/207/3 177/235/3
f 175/207/3 178/238/3 176/209/3
f 179/230/8 166/247/8 165/229/8
f 166/247/8 179/230/8 178/248/8
f 178/248/8 179/230/8 176/249/8
f 180/231/8 176/249/8 179/230/8
f 153/212/8 176/249/8 180/231/8
f 176/249/8 153/212/8 151/250/8
f 162/253/4 179/252/4 161/251/4
f 179/252/4 162/253/4 180/254/4
f 153/245/20 162/256/20 154/255/20
f 162/256/20 153/245/20 180/257/20
f 179/260/19 160/259/19 161/258/19
f 160/259/19 179/260/19 165/242/19
f 181/224/6 149/261/6 150/223/6
f 149/261/6 181/224/6 175/262/6
f 175/262/6 181/224/6 177/263/6
f 182/225/6 177/263/6 181/224/6
f 164/226/6 177/263/6 182/225/6
f 177/263/6 164/226/6 163/264/6
f 181/267/4 158/266/4 182/265/4
f 158/266/4 181/267/4 157/268/4
f 158/270/19 164/240/19 182/269/19
f 164/240/19 158/270/19 159/271/19
f 152/273/20 181/272/20 150/243/20
f 181/272/20 152/273/20 157/274/20

